<svg width="250" height="250" viewBox="0 0 250 250" fill="none" xmlns="http://www.w3.org/2000/svg">
<g clip-path="url(#clip0)">
<path d="M46 122.558V122.346C47.9095 97.7347 56.8204 79.2765 72.3084 67.6075C87.5841 55.7262 104.133 49.9978 122.167 49.9978C141.05 49.7856 158.659 56.1506 174.359 68.8804C190.271 81.3981 198.122 100.068 198.122 124.255V125.74C198.122 150.139 190.271 168.385 174.359 180.903C158.447 193.633 140.838 199.998 121.955 199.998H121.106C102.648 199.786 85.6747 193.421 69.9746 180.691C54.2744 168.173 46.2122 148.866 46 122.558ZM117.499 89.2482V55.7262H112.407C111.347 56.9992 110.498 58.4844 109.649 59.7573C108.801 61.0303 107.952 62.3033 107.103 63.7884C106.255 65.0614 105.194 66.7588 104.557 68.0317C103.709 69.3048 103.072 70.5778 102.436 72.0629C101.163 74.1845 100.102 76.3062 99.2531 78.2156C98.1923 80.1251 97.3437 82.0346 96.7072 83.7319C97.9802 84.5806 99.4653 85.6413 101.163 86.2779C103.072 86.9143 104.982 87.5509 106.891 87.9752C109.013 88.3995 110.922 88.6116 112.619 88.8238C114.529 89.036 116.226 89.2482 117.499 89.2482ZM126.411 55.7262V89.036C127.471 89.036 128.744 89.2482 130.017 89.036C131.29 89.036 132.775 88.8238 134.048 88.6117C136.382 88.1874 139.14 87.5508 141.262 86.9143C143.595 86.0657 145.717 85.0049 147.202 83.7319C144.656 77.5792 141.898 72.6994 139.14 68.0317C136.382 63.3642 133.199 59.333 129.805 55.9384V55.7262H126.411ZM103.497 57.6358V57.4236C102.011 58.06 100.526 59.1209 98.8289 59.7573C97.3437 60.3939 95.4342 61.2425 93.9491 62.0911C90.9788 63.5763 88.0085 65.2736 85.0382 67.1831C82.2801 69.0926 79.5219 71.2142 77.1882 73.3359C78.0368 74.1845 79.0976 75.0332 79.9463 75.6697C80.7949 76.3062 81.8557 77.1548 82.9166 78.0035C83.7652 78.4278 84.826 79.0643 85.8869 79.9129C86.9477 80.5494 88.2206 81.3981 89.4936 82.2468C91.1909 78.4278 92.8883 74.3967 95.0099 70.7899C97.1315 66.9709 99.4653 63.3642 101.799 60.1817C102.011 59.7574 102.223 59.333 102.648 58.9087C102.86 58.6965 103.072 58.06 103.497 57.6358ZM168.419 73.3359V73.1237C163.115 69.0926 158.447 65.698 153.779 63.5763C149.111 61.4547 144.444 59.333 140.201 57.6358C143.595 61.0303 146.566 65.2736 148.475 69.3048C150.597 73.5481 152.718 78.0035 154.416 82.2468C155.265 81.8224 156.325 81.3981 157.598 80.5494C158.659 79.9129 160.144 79.2765 161.417 78.64C162.69 77.7913 163.751 76.9426 165.024 76.094C166.297 75.0332 167.57 74.1845 168.419 73.3359ZM164.812 120.648H189.211C189.211 112.798 187.514 105.373 184.331 97.7347C181.361 90.309 177.117 84.1562 171.813 78.8521V78.64C170.753 80.3373 169.267 81.8224 167.782 82.8832C166.085 83.9441 164.6 84.7927 162.902 85.6414C161.841 86.2779 160.781 87.1265 159.72 87.5509C158.659 88.1874 157.174 88.6116 156.113 89.2482C156.962 90.9455 157.811 92.8549 158.659 94.5522C159.296 96.4617 160.356 98.5833 160.781 100.493C162.054 103.887 162.902 107.494 163.751 111.101C164.387 114.284 164.812 117.678 164.812 120.648ZM88.0085 89.2482V89.036C86.3112 88.1874 84.4017 87.5509 82.9166 86.7022C81.4314 85.6414 79.9463 84.5806 78.6733 83.7319C77.4003 83.0954 76.1273 82.2468 75.0665 81.3981C74.0057 80.5494 73.157 79.7008 72.3084 78.8521C66.7921 84.1562 62.761 90.0968 60.215 97.0983C57.4568 104.1 55.5473 111.95 54.6987 120.436H80.7949C80.7949 114.496 81.6436 108.767 83.1288 103.039C84.4017 97.0983 86.3112 92.6428 88.0085 89.2482ZM117.499 120.436V96.0374C115.802 96.2496 113.68 96.2496 111.771 96.0374C109.649 95.8252 107.528 95.1888 105.618 94.5522C103.921 94.128 101.799 93.7036 100.102 93.0671C98.1924 92.6428 96.2829 91.7941 94.7978 90.9455C93.5247 93.0671 92.4639 95.6131 91.6153 98.3713C90.5544 100.917 89.918 103.675 89.2815 106.221C88.8572 108.767 88.645 111.525 88.4328 113.859C88.2207 116.193 88.0085 118.527 88.0085 120.436H117.499ZM126.411 96.4618V120.436H157.811C157.811 119.163 157.811 117.678 157.598 115.981C157.174 114.496 156.962 112.586 156.749 110.889C156.113 108.343 155.477 105.585 154.628 103.039C153.779 100.705 152.931 98.3713 151.87 96.4618C151.446 95.401 151.021 94.128 150.597 93.2793C149.96 92.2185 149.324 91.582 148.899 90.9455C146.566 92.6428 143.383 93.7036 139.564 94.5522C135.957 95.4009 131.715 96.2496 127.896 96.4618H126.411ZM80.7949 127.437H54.6987C54.6987 131.044 55.3352 135.075 56.396 139.956C57.4568 145.047 59.5785 149.715 61.9123 154.807C62.9731 157.353 64.2461 159.899 65.5191 162.445C67.0043 164.779 68.7015 167.325 70.3989 169.658C71.6718 168.81 72.9449 168.173 74.0057 167.537C75.2787 166.9 76.7638 166.051 78.0368 165.415C79.5219 164.778 81.0071 164.142 82.7044 163.293C84.1895 162.657 86.0991 161.808 88.0085 160.959C86.3112 155.655 84.4017 150.564 83.1288 144.835C81.6436 139.319 80.7949 133.803 80.7949 127.65V127.437ZM117.499 152.261V127.437H88.0085C88.0085 129.135 88.2206 131.681 88.645 134.227C88.8572 136.773 89.4936 139.531 89.918 142.289C90.7666 145.26 91.4031 148.23 92.2518 150.776C93.1005 153.321 93.9491 155.443 94.7978 157.353C98.6167 155.868 102.436 154.806 104.982 154.17C107.74 153.321 110.286 152.686 112.832 152.473H115.166C116.014 152.261 116.863 152.261 117.499 152.261ZM126.411 127.437V152.049C127.896 152.261 129.593 152.473 131.29 152.685C133.199 152.898 135.533 153.321 137.443 153.746L140.625 154.383C141.686 154.806 142.959 155.019 144.02 155.231C145.292 155.655 146.566 155.868 147.839 156.292C148.899 156.716 149.96 156.928 150.809 157.353C153.567 150.351 155.265 144.623 156.325 139.744C157.386 135.076 157.811 131.044 157.811 127.65V127.437H126.411ZM189.211 127.65V127.437H164.812V128.711C164.6 132.741 163.963 137.409 163.115 142.289C162.266 146.957 160.356 152.473 157.811 159.262C161.205 160.96 164.388 162.657 166.934 164.354C169.479 166.051 171.813 167.961 173.51 169.658C177.117 166.051 180.3 161.172 183.058 154.807C185.817 148.654 187.725 142.289 188.787 135.5C188.999 134.227 188.999 132.954 189.211 131.681V127.65ZM117.499 192.147V159.05C112.195 159.899 107.74 160.959 104.345 161.808C100.95 162.657 98.4045 163.506 96.7072 164.354C97.9802 167.537 99.2532 170.295 100.526 172.841C101.799 175.174 103.284 177.72 104.557 179.842C104.982 180.691 105.83 181.54 106.467 182.6C107.103 183.449 107.528 184.51 108.164 185.359C108.801 186.419 109.437 187.692 110.074 188.965C110.922 190.026 111.559 191.299 112.407 192.147H117.499ZM126.411 192.147H131.29C133.199 190.662 135.109 188.541 136.594 186.207C138.291 183.873 140.201 181.115 141.474 178.782C142.959 176.023 144.444 173.477 145.717 170.932C146.99 168.385 148.051 166.051 148.899 164.354C146.566 163.506 143.383 162.657 140.201 161.808C137.018 160.959 132.563 160.111 126.411 159.262V192.147ZM168.419 174.75V174.538C167.994 173.902 167.146 173.053 166.509 172.417C165.872 171.78 164.812 170.932 163.751 170.295C162.902 169.658 161.841 169.022 160.568 168.385C159.296 167.749 157.598 166.9 156.113 166.051C155.264 167.749 153.779 170.719 151.658 174.75C149.748 178.782 146.354 183.661 142.11 188.965C147.414 188.117 152.082 186.208 156.325 183.661C160.993 181.327 165.024 178.145 168.419 174.75ZM89.4936 167.961V167.748C88.0085 168.597 85.6747 169.658 83.3408 170.719C80.7949 171.78 78.0368 173.053 75.4908 174.75C76.976 176.023 78.4611 177.296 79.7341 178.145C81.0071 179.206 82.4922 180.054 83.7652 180.903C86.099 182.388 88.8572 183.874 91.6153 185.146C94.3734 186.419 97.7681 187.692 102.011 188.965C100.526 187.268 99.4653 185.146 98.4045 183.449C97.3437 181.752 96.0707 180.054 95.0099 178.357C93.9491 176.66 93.1005 174.751 92.2518 173.053C91.191 171.356 90.3423 169.658 89.4936 167.961Z" fill="url(#paint0_linear)"/>
</g>
<defs>
<linearGradient id="paint0_linear" x1="128.114" y1="131.635" x2="235.611" y2="234.918" gradientUnits="userSpaceOnUse">
<stop stop-color="#5B5B5B"/>
<stop offset="1" stop-color="#CCC9C2"/>
</linearGradient>
<clipPath id="clip0">
<rect width="157.5" height="150" fill="white" transform="translate(46 50)"/>
</clipPath>
</defs>
</svg>
